<svg width="42" height="42" viewBox="0 0 42 42" fill="none" xmlns="http://www.w3.org/2000/svg">
<path d="M16.4081 34.7806L16.7243 35.7293H16.7243L16.4081 34.7806ZM25.9081 31.614L26.2243 32.5627H26.2243L25.9081 31.614ZM7.29289 12.5429L6.58579 13.25L7.29289 12.5429ZM8 8H34V6H8V8ZM8 11.8358V8H6V11.8358H8ZM16.1642 20L8 11.8358L6.58579 13.25L14.75 21.4142L16.1642 20ZM14.75 21.4142V34.3063H16.75V21.4142H14.75ZM14.75 34.3063C14.75 35.3301 15.753 36.0531 16.7243 35.7293L16.0919 33.832C16.4156 33.724 16.75 33.965 16.75 34.3063H14.75ZM16.7243 35.7293L26.2243 32.5627L25.5919 30.6653L16.0919 33.832L16.7243 35.7293ZM26.2243 32.5627C26.8368 32.3585 27.25 31.7853 27.25 31.1396H25.25C25.25 30.9244 25.3877 30.7333 25.5919 30.6653L26.2243 32.5627ZM27.25 31.1396V21.4142H25.25V31.1396H27.25ZM34 11.8358L25.8358 20L27.25 21.4142L35.4142 13.25L34 11.8358ZM34 8V11.8358H36V8H34ZM35.4142 13.25C35.7893 12.8749 36 12.3662 36 11.8358H34L35.4142 13.25ZM27.25 21.4142V21.4142L25.8358 20C25.4607 20.3751 25.25 20.8838 25.25 21.4142H27.25ZM14.75 21.4142H16.75C16.75 20.8838 16.5393 20.3751 16.1642 20L14.75 21.4142ZM6 11.8358C6 12.3662 6.21071 12.8749 6.58579 13.25L8 11.8358L8 11.8358H6ZM34 8H36C36 6.89543 35.1046 6 34 6V8ZM8 6C6.89543 6 6 6.89543 6 8H8V8V6Z" fill="#FFFEFE"/>
</svg>
