<svg width="1165" height="592" viewBox="0 0 1165 592" fill="none" xmlns="http://www.w3.org/2000/svg">
<path d="M27.5 482L33.6741 501.002H53.6541L37.49 512.746L43.6641 531.748L27.5 520.004L11.3359 531.748L17.51 512.746L1.34595 501.002H21.3259L27.5 482Z" fill="#AFA000"/>
<path d="M54.5 184L60.6741 203.002H80.6541L64.49 214.746L70.6641 233.748L54.5 222.004L38.3359 233.748L44.51 214.746L28.3459 203.002H48.3259L54.5 184Z" fill="#AFA000"/>
<path d="M1008.5 0L1014.67 19.002H1034.65L1018.49 30.7459L1024.66 49.748L1008.5 38.0041L992.336 49.748L998.51 30.7459L982.346 19.002H1002.33L1008.5 0Z" fill="#AFA000"/>
<path d="M943.5 252L949.674 271.002H969.654L953.49 282.746L959.664 301.748L943.5 290.004L927.336 301.748L933.51 282.746L917.346 271.002H937.326L943.5 252Z" fill="#AFA000"/>
<path d="M188.5 0L194.674 19.002H214.654L198.49 30.7459L204.664 49.748L188.5 38.0041L172.336 49.748L178.51 30.7459L162.346 19.002H182.326L188.5 0Z" fill="#AFA000"/>
<path d="M1035.5 537L1041.67 556.002H1061.65L1045.49 567.746L1051.66 586.748L1035.5 575.004L1019.34 586.748L1025.51 567.746L1009.35 556.002H1029.33L1035.5 537Z" fill="#AFA000"/>
<path d="M180.5 363L186.674 382.002H206.654L190.49 393.746L196.664 412.748L180.5 401.004L164.336 412.748L170.51 393.746L154.346 382.002H174.326L180.5 363Z" fill="#AFA000"/>
<path d="M1137.5 279L1143.67 298.002H1163.65L1147.49 309.746L1153.66 328.748L1137.5 317.004L1121.34 328.748L1127.51 309.746L1111.35 298.002H1131.33L1137.5 279Z" fill="#AFA000"/>
</svg>
